<?xml version="1.0" standalone="no"?>
<!DOCTYPE svg PUBLIC "-//W3C//DTD SVG 20010904//EN"
 "http://www.w3.org/TR/2001/REC-SVG-20010904/DTD/svg10.dtd">
<svg version="1.0" xmlns="http://www.w3.org/2000/svg"
 width="705.000000pt" height="137.000000pt" viewBox="0 0 705.000000 137.000000"
 preserveAspectRatio="xMidYMid meet">
<metadata>
Created by potrace 1.16, written by Peter Selinger 2001-2019
</metadata>
<g transform="translate(0.000000,137.000000) scale(0.100000,-0.100000)"
fill="#000000" stroke="none">
<path d="M2172 1359 c-153 -30 -266 -144 -316 -320 -21 -75 -46 -254 -46 -330
0 -90 24 -189 61 -259 35 -66 226 -300 285 -349 67 -54 119 -64 348 -59 186 3
205 5 248 26 73 36 122 104 153 215 l15 52 -4 -49 -4 -48 99 -119 99 -119 129
0 c91 0 132 4 139 13 10 12 32 174 32 236 0 22 -23 56 -96 145 l-97 116 -133
0 c-116 0 -134 -2 -143 -17 -9 -16 -10 -15 -11 7 0 17 -30 62 -91 135 l-92
110 101 3 c69 2 104 7 111 16 10 12 51 293 51 351 0 11 -44 73 -97 138 l-97
117 -141 0 c-79 0 -145 -4 -151 -10 -6 -6 -30 -6 -69 0 -71 12 -222 11 -283
-1z m322 -40 c34 -9 42 -8 52 5 9 13 33 16 133 16 109 0 121 -2 121 -18 0 -21
-27 -253 -35 -300 l-6 -33 -127 3 -127 3 3 57 c2 31 1 65 -2 76 -15 47 -162
64 -227 26 -55 -32 -69 -69 -96 -252 -32 -220 -35 -336 -9 -378 27 -44 65 -64
126 -64 94 0 135 54 147 196 l6 74 133 0 134 0 0 -42 c0 -63 -18 -164 -41
-234 -22 -69 -71 -123 -134 -150 -51 -22 -330 -32 -420 -15 -196 37 -300 234
-274 521 17 181 65 326 135 409 40 46 137 98 210 111 60 11 245 4 298 -11z
m89 -469 c37 -43 67 -82 67 -85 0 -3 -47 -5 -104 -5 -73 0 -107 -4 -113 -12
-4 -7 -13 -49 -19 -93 -11 -77 -30 -142 -39 -134 -2 3 3 54 11 114 29 227 42
267 87 285 38 15 42 12 110 -70z m624 -365 c10 -17 -8 -223 -20 -242 -6 -9
-42 -13 -123 -13 -96 0 -116 3 -121 16 -10 28 14 236 29 245 7 5 61 9 120 9
85 0 109 -3 115 -15z"/>
<path d="M2199 1311 c-200 -37 -299 -189 -328 -503 -22 -233 48 -411 187 -480
44 -22 58 -23 247 -23 188 0 203 1 246 23 82 40 132 144 145 302 l7 80 -114 0
-115 0 -10 -77 c-19 -142 -62 -193 -163 -193 -95 0 -152 50 -166 148 -6 39 37
406 56 476 14 53 43 92 82 113 39 20 161 22 197 3 54 -28 61 -40 59 -105 l-3
-60 110 0 109 0 17 130 c25 197 37 175 -92 175 -103 0 -110 -1 -110 -20 0 -24
-3 -24 -58 -5 -52 18 -238 28 -303 16z"/>
<path d="M2966 418 c-3 -35 -9 -87 -12 -115 l-6 -53 115 0 115 0 6 48 c3 26 8
77 12 115 l6 67 -115 0 -114 0 -7 -62z"/>
<path d="M486 1308 c-8 -18 -85 -206 -171 -418 -86 -212 -161 -393 -166 -402
-7 -13 -22 -18 -52 -18 -23 0 -48 -4 -56 -9 -14 -9 -40 -121 -41 -176 0 -24
21 -55 97 -148 l97 -117 576 0 c316 0 581 4 589 9 14 9 40 129 40 192 1 31
-10 50 -66 118 l-68 82 -61 344 -61 344 -97 116 -97 115 -225 0 -225 0 -13
-32z m517 -388 c39 -217 76 -400 86 -420 14 -28 24 -36 52 -38 59 -5 58 -3 40
-104 l-16 -93 -274 -3 c-160 -1 -279 2 -284 7 -5 5 -6 43 -2 90 l7 81 53 0
c73 0 89 16 80 84 -4 28 -12 57 -17 64 -15 17 -212 17 -226 -1 -6 -7 -17 -34
-24 -60 -16 -63 -5 -81 52 -85 l43 -3 -7 -81 c-4 -45 -9 -85 -12 -90 -7 -11
-511 -10 -518 1 -3 5 -1 35 4 67 19 110 16 104 64 104 69 0 58 -20 266 493
l153 377 206 -2 205 -3 69 -385z"/>
<path d="M370 883 c-91 -224 -174 -418 -186 -432 -14 -16 -35 -26 -64 -30 -47
-6 -50 -10 -64 -99 l-6 -42 244 0 243 0 7 46 c11 86 10 89 -36 100 -57 12 -68
42 -44 119 9 30 25 59 36 65 10 5 66 10 124 10 101 0 106 -1 122 -24 19 -30
24 -140 7 -157 -7 -7 -37 -14 -66 -17 l-55 -4 -6 -46 c-3 -24 -6 -55 -6 -68
l0 -24 264 0 264 0 11 63 c16 91 15 97 -15 97 -40 0 -61 17 -78 62 -9 24 -39
171 -66 328 -28 157 -58 324 -66 373 l-16 87 -192 0 -191 0 -165 -407z m310
185 c0 -7 9 -71 20 -143 11 -71 20 -136 20 -142 0 -10 -24 -13 -85 -13 -47 0
-85 4 -85 9 0 5 23 69 50 142 28 74 52 140 55 147 2 6 9 12 15 12 5 0 10 -6
10 -12z"/>
<path d="M643 980 c-12 -30 -33 -85 -47 -122 l-25 -68 65 0 64 0 -6 38 c-3 20
-11 75 -18 122 l-12 85 -21 -55z"/>
<path d="M3566 1332 c-6 -10 -26 -128 -26 -154 0 -9 25 -47 55 -84 47 -57 55
-71 50 -98 -3 -17 -19 -136 -35 -264 -16 -128 -32 -238 -35 -243 -4 -5 -26 -9
-51 -9 -70 0 -81 -10 -89 -82 -3 -35 -8 -75 -11 -90 -4 -22 11 -45 96 -147
l100 -121 303 0 c166 0 308 4 314 8 12 7 32 117 33 174 0 17 -18 49 -55 93
-30 37 -55 71 -55 75 0 13 60 462 66 498 6 31 7 32 58 32 29 0 60 6 69 13 17
12 37 94 37 150 0 23 -22 55 -95 143 l-96 114 -314 0 c-173 0 -316 -4 -319 -8z
m609 -79 c-10 -83 -10 -83 -70 -83 -38 0 -56 -5 -69 -19 -13 -14 -27 -94 -58
-335 -48 -370 -48 -366 33 -366 l51 0 -6 -67 c-12 -115 23 -103 -307 -103
l-289 0 0 28 c0 15 3 50 6 79 l7 52 58 7 c32 4 64 13 70 20 6 7 28 150 49 316
22 167 41 314 44 328 7 40 -7 53 -68 58 -46 4 -56 8 -52 21 3 9 8 40 11 69 l7
52 295 0 295 0 -7 -57z"/>
<path d="M3606 1268 c-3 -13 -6 -35 -6 -50 0 -23 4 -28 24 -28 12 0 37 -5 55
-11 41 -14 41 -12 -9 -401 -44 -348 -45 -348 -119 -348 -52 0 -60 -9 -67 -73
l-7 -57 277 0 276 0 0 28 c0 15 3 44 6 65 l7 37 -37 0 c-50 0 -73 14 -81 49
-5 23 44 449 72 624 9 60 31 79 95 85 55 4 56 5 62 41 3 20 6 42 6 49 0 9 -61
12 -274 12 l-274 0 -6 -22z"/>
<path d="M5182 1323 c-5 -10 -28 -76 -52 -147 -23 -71 -51 -137 -61 -147 -19
-19 -18 -19 28 -19 41 0 45 2 29 13 -17 12 -17 18 -7 50 12 36 14 37 61 37 47
0 49 -1 61 -37 10 -32 10 -38 -7 -50 -16 -11 -10 -13 42 -13 52 1 57 2 41 14
-10 8 -40 79 -67 161 -27 81 -52 150 -54 152 -2 3 -9 -4 -14 -14z m21 -135
l16 -48 -39 0 -39 0 13 33 c7 17 16 41 20 51 8 24 9 22 29 -36z"/>
<path d="M5397 1320 c-58 -45 -41 -113 42 -174 52 -38 66 -61 55 -90 -19 -50
-83 -36 -108 23 l-15 36 0 -60 c0 -33 3 -55 5 -48 4 9 13 9 30 2 47 -17 81
-11 108 22 47 55 32 105 -50 163 -57 41 -75 76 -54 101 29 35 77 11 98 -50 9
-27 10 -23 11 35 0 37 -3 60 -7 52 -7 -10 -15 -10 -36 -2 -38 14 -50 13 -79
-10z"/>
<path d="M6161 1188 c-30 -89 -58 -158 -69 -165 -14 -10 -9 -12 32 -12 44 -1
48 1 32 12 -17 12 -17 18 -7 50 12 36 14 37 60 37 46 0 48 -1 59 -37 10 -33 9
-40 -5 -50 -14 -11 -8 -13 41 -13 56 0 58 1 38 18 -12 10 -39 75 -67 159 -26
79 -50 145 -55 148 -5 3 -31 -64 -59 -147z m59 27 c5 -14 13 -37 16 -50 6 -23
3 -25 -29 -25 l-35 0 16 50 c9 28 17 50 19 50 2 0 8 -11 13 -25z"/>
<path d="M4950 695 l0 -635 30 0 30 0 0 635 0 635 -30 0 -30 0 0 -635z"/>
<path d="M5588 1314 c21 -14 22 -22 22 -142 0 -129 -3 -145 -30 -155 -8 -3 14
-5 50 -6 49 0 59 3 43 9 -20 8 -23 16 -23 70 l0 60 35 0 c67 0 104 67 74 133
-16 35 -49 47 -127 47 -63 0 -65 -1 -44 -16z m122 -33 c25 -48 2 -111 -41
-111 -17 0 -19 7 -19 65 0 62 1 65 25 65 14 0 29 -8 35 -19z"/>
<path d="M5813 1316 c15 -11 17 -31 17 -149 0 -119 -2 -137 -17 -146 -14 -8
-4 -10 40 -11 l57 0 -20 20 c-15 15 -20 33 -20 75 l0 55 60 0 60 0 0 -59 c0
-51 -3 -62 -22 -75 -21 -15 -20 -16 37 -16 46 1 56 3 43 11 -16 9 -18 27 -18
146 0 118 2 138 18 149 15 12 9 13 -43 14 -57 0 -59 -1 -37 -16 20 -14 23 -23
20 -72 l-3 -57 -55 0 -55 0 -3 52 c-2 43 1 55 19 72 l23 21 -60 0 c-51 -1 -57
-2 -41 -14z"/>
<path d="M6393 1316 c15 -11 17 -31 17 -149 0 -119 -2 -137 -17 -146 -13 -8
10 -10 84 -11 l102 0 11 41 c14 50 7 61 -14 21 -21 -41 -107 -60 -120 -26 -9
22 -7 237 2 250 4 6 16 16 27 22 16 9 9 11 -45 11 -56 0 -63 -1 -47 -13z"/>
<path d="M6590 1288 c1 -42 1 -42 14 -19 13 24 37 39 64 40 9 1 12 -32 12
-131 0 -135 -3 -151 -30 -161 -8 -3 14 -5 50 -6 49 0 59 3 43 9 -22 9 -23 14
-23 150 0 80 4 140 9 140 24 0 61 -21 61 -34 0 -8 5 -18 10 -21 6 -4 10 10 10
34 l0 41 -110 0 -110 0 0 -42z"/>
<path d="M5139 847 c-48 -32 -69 -79 -69 -155 0 -102 46 -162 123 -162 33 0
46 6 73 36 31 33 42 54 28 54 -3 0 -17 -13 -31 -30 -30 -36 -82 -41 -112 -11
-61 61 -43 240 24 257 46 11 75 -4 95 -49 l20 -42 0 64 c0 53 -2 62 -14 52
-10 -8 -21 -8 -40 -1 -40 15 -59 12 -97 -13z"/>
<path d="M6434 856 c-46 -20 -77 -70 -82 -132 -6 -73 3 -114 36 -153 22 -26
37 -34 74 -38 44 -5 50 -3 83 30 19 19 35 41 35 48 0 8 -13 -1 -29 -19 -38
-41 -86 -44 -122 -6 -32 34 -40 153 -14 207 31 66 101 67 132 2 9 -19 19 -35
22 -35 3 0 4 25 3 55 -3 44 -7 54 -17 45 -9 -7 -21 -7 -39 0 -35 13 -44 12
-82 -4z"/>
<path d="M6917 850 c-30 -24 -42 -66 -28 -103 6 -14 35 -44 65 -67 57 -43 71
-65 60 -94 -19 -50 -83 -36 -108 23 l-15 36 0 -60 c0 -33 3 -55 5 -48 4 9 13
9 30 2 76 -28 127 8 122 87 -3 45 -7 51 -58 92 -62 50 -80 82 -60 106 25 32
90 7 90 -35 0 -8 5 -21 10 -29 7 -11 10 4 10 49 0 49 -3 61 -12 53 -8 -5 -22
-6 -33 -1 -33 13 -51 10 -78 -11z"/>
<path d="M5323 846 c14 -11 17 -30 17 -120 0 -154 22 -196 104 -196 77 0 105
58 106 219 0 68 3 86 18 97 15 12 11 13 -33 13 -44 0 -48 -1 -32 -13 14 -11
17 -30 17 -130 0 -133 -11 -156 -75 -156 -48 0 -58 24 -63 151 -4 98 -3 108
17 128 l21 21 -57 0 c-50 -1 -56 -2 -40 -14z"/>
<path d="M5590 818 c1 -43 1 -43 15 -17 14 26 50 43 67 33 4 -3 8 -63 8 -134
0 -122 -1 -130 -22 -144 -21 -15 -20 -16 37 -16 46 1 56 3 43 11 -16 9 -18 27
-18 149 0 80 4 140 9 140 28 0 61 -21 61 -40 0 -11 5 -20 10 -20 11 0 13 39 4
64 -5 13 -25 16 -110 16 l-104 0 0 -42z"/>
<path d="M5828 848 c21 -11 22 -16 22 -150 0 -134 -1 -139 -22 -148 -16 -6 6
-9 75 -9 106 -1 129 9 143 64 7 30 -11 81 -33 89 -14 6 -13 9 3 27 28 31 24
87 -10 115 -24 21 -36 24 -114 23 -70 0 -83 -2 -64 -11z m142 -28 c35 -35 21
-93 -24 -104 -44 -11 -56 1 -56 58 0 29 3 56 7 59 13 14 54 6 73 -13z m3 -142
c9 -7 20 -27 23 -44 8 -43 -22 -74 -71 -74 l-35 0 0 65 0 65 33 0 c18 0 41 -6
50 -12z"/>
<path d="M6141 713 c-28 -80 -59 -152 -69 -159 -15 -12 -10 -13 32 -14 44 0
48 2 32 13 -17 12 -17 18 -7 50 12 36 14 37 60 37 46 0 48 -1 59 -37 10 -33 9
-40 -5 -50 -14 -11 -7 -13 42 -13 59 0 59 0 38 19 -12 12 -41 79 -68 160 -26
78 -50 141 -55 141 -4 0 -31 -66 -59 -147z m59 32 c5 -14 13 -37 16 -50 6 -23
3 -25 -29 -25 l-35 0 16 50 c9 28 17 50 19 50 2 0 8 -11 13 -25z"/>
<path d="M6608 844 c21 -14 22 -22 22 -142 0 -129 -3 -145 -30 -155 -8 -3 14
-5 50 -6 49 0 59 3 43 9 -20 8 -23 16 -23 70 0 33 2 60 4 60 2 0 23 -23 46
-52 25 -32 39 -59 37 -70 -5 -16 2 -18 56 -18 57 1 60 2 43 15 -11 8 -23 15
-26 15 -8 0 -109 125 -116 144 -3 7 23 42 59 80 l64 66 -50 0 c-43 0 -48 -2
-37 -15 14 -17 6 -32 -49 -95 l-30 -35 -1 61 c0 54 3 62 23 72 18 9 11 11 -43
11 -61 1 -63 0 -42 -15z"/>
<path d="M1475 500 c-4 -6 -11 -68 -18 -139 l-10 -128 98 -117 97 -117 136 3
136 3 7 29 c5 16 11 78 15 137 l7 108 -97 116 -97 115 -134 0 c-81 0 -136 -4
-140 -10z m263 -13 c13 -15 -5 -225 -21 -244 -6 -9 -44 -13 -124 -13 -93 0
-115 3 -119 15 -10 25 16 239 29 247 21 14 223 9 235 -5z"/>
<path d="M1496 398 c-4 -46 -9 -98 -13 -115 l-5 -33 115 0 c134 0 121 -13 133
138 l7 92 -115 0 -115 0 -7 -82z"/>
<path d="M4316 501 c-7 -11 -26 -180 -26 -232 0 -32 13 -53 96 -153 l97 -116
134 0 c159 0 148 -12 159 163 l7 116 -97 116 -97 115 -134 0 c-74 0 -136 -4
-139 -9z m263 -10 c11 -7 12 -28 1 -127 -6 -66 -14 -122 -17 -127 -6 -11 -241
-9 -248 3 -9 14 15 233 27 248 12 14 214 17 237 3z"/>
<path d="M4347 467 c-3 -8 -8 -60 -12 -116 l-8 -102 114 3 114 3 10 108 c6 60
9 110 6 113 -2 2 -53 4 -112 4 -80 0 -108 -3 -112 -13z"/>
<path d="M5590 393 c-23 -9 -61 -45 -75 -73 -56 -108 4 -260 102 -260 45 0 77
20 98 61 20 37 11 37 -22 -1 -32 -39 -83 -41 -118 -6 -43 43 -45 158 -5 224
16 26 26 32 52 32 43 0 54 -8 78 -56 l19 -39 1 56 c0 54 -1 56 -27 57 -16 0
-41 3 -58 6 -16 3 -37 3 -45 -1z"/>
<path d="M5078 374 c21 -14 22 -22 22 -144 0 -122 -1 -130 -22 -144 -21 -15
-20 -16 37 -16 46 1 56 3 43 11 -16 9 -18 27 -18 146 0 118 2 138 18 149 15
12 9 13 -43 14 -57 0 -58 -1 -37 -16z"/>
<path d="M5233 369 c27 -21 27 -21 27 -142 0 -124 -3 -140 -30 -150 -8 -3 10
-5 40 -6 43 0 50 2 33 9 -22 9 -23 15 -23 115 0 58 2 105 4 105 2 0 39 -54 82
-120 44 -66 82 -120 87 -120 4 0 7 68 7 151 0 133 2 153 18 165 15 12 11 13
-33 13 -44 0 -48 -1 -32 -13 14 -11 17 -29 17 -112 l0 -99 -73 112 -72 113
-40 0 -40 -1 28 -20z"/>
<path d="M5781 107 c-15 -19 -3 -49 18 -45 9 2 16 13 16 27 0 29 -17 37 -34
18z"/>
</g>
</svg>
